<mxfile host="www.draw.io" modified="2020-02-08T23:48:06.965Z" agent="Mozilla/5.0 (Windows NT 10.0; Win64; x64) AppleWebKit/537.36 (KHTML, like Gecko) Chrome/80.0.3987.87 Safari/537.36" etag="wHb8x2KgA0DyKgu73M8x" version="12.6.6" type="github">
  <diagram id="EDGiGLUPWGxTcvUNGVG7" name="Page-1">
    <mxGraphModel dx="782" dy="476" grid="1" gridSize="10" guides="1" tooltips="1" connect="1" arrows="1" fold="1" page="1" pageScale="1" pageWidth="2339" pageHeight="3300" math="0" shadow="0">
      <root>
        <mxCell id="0"/>
        <mxCell id="1" parent="0"/>
        <mxCell id="FvC4vKHcdPBLq3AzQwxq-12" style="edgeStyle=orthogonalEdgeStyle;rounded=0;orthogonalLoop=1;jettySize=auto;html=1;exitX=0.5;exitY=1;exitDx=0;exitDy=0;entryX=0.5;entryY=0;entryDx=0;entryDy=0;" edge="1" parent="1" source="FvC4vKHcdPBLq3AzQwxq-1" target="FvC4vKHcdPBLq3AzQwxq-2">
          <mxGeometry relative="1" as="geometry"/>
        </mxCell>
        <mxCell id="FvC4vKHcdPBLq3AzQwxq-1" value="你主动沟通" style="rounded=1;whiteSpace=wrap;html=1;" vertex="1" parent="1">
          <mxGeometry x="150" y="120" width="120" height="60" as="geometry"/>
        </mxCell>
        <mxCell id="FvC4vKHcdPBLq3AzQwxq-14" style="edgeStyle=orthogonalEdgeStyle;rounded=0;orthogonalLoop=1;jettySize=auto;html=1;exitX=0.5;exitY=1;exitDx=0;exitDy=0;" edge="1" parent="1" source="FvC4vKHcdPBLq3AzQwxq-2">
          <mxGeometry relative="1" as="geometry">
            <mxPoint x="320" y="310" as="targetPoint"/>
          </mxGeometry>
        </mxCell>
        <mxCell id="FvC4vKHcdPBLq3AzQwxq-2" value="说出你的想法，听对方的想法" style="rounded=1;whiteSpace=wrap;html=1;" vertex="1" parent="1">
          <mxGeometry x="150" y="210" width="120" height="60" as="geometry"/>
        </mxCell>
        <mxCell id="FvC4vKHcdPBLq3AzQwxq-17" style="edgeStyle=orthogonalEdgeStyle;rounded=0;orthogonalLoop=1;jettySize=auto;html=1;exitX=0.5;exitY=1;exitDx=0;exitDy=0;entryX=0.5;entryY=0;entryDx=0;entryDy=0;" edge="1" parent="1" source="FvC4vKHcdPBLq3AzQwxq-3" target="FvC4vKHcdPBLq3AzQwxq-4">
          <mxGeometry relative="1" as="geometry"/>
        </mxCell>
        <mxCell id="FvC4vKHcdPBLq3AzQwxq-3" value="征求多方意见" style="rounded=1;whiteSpace=wrap;html=1;" vertex="1" parent="1">
          <mxGeometry x="260" y="400" width="120" height="60" as="geometry"/>
        </mxCell>
        <mxCell id="FvC4vKHcdPBLq3AzQwxq-4" value="权衡与决定" style="rounded=1;whiteSpace=wrap;html=1;" vertex="1" parent="1">
          <mxGeometry x="260" y="500" width="120" height="60" as="geometry"/>
        </mxCell>
        <mxCell id="FvC4vKHcdPBLq3AzQwxq-11" style="edgeStyle=orthogonalEdgeStyle;rounded=0;orthogonalLoop=1;jettySize=auto;html=1;exitX=0.5;exitY=1;exitDx=0;exitDy=0;entryX=0.5;entryY=0;entryDx=0;entryDy=0;" edge="1" parent="1" source="FvC4vKHcdPBLq3AzQwxq-5" target="FvC4vKHcdPBLq3AzQwxq-6">
          <mxGeometry relative="1" as="geometry"/>
        </mxCell>
        <mxCell id="FvC4vKHcdPBLq3AzQwxq-5" value="别人主动沟通" style="rounded=1;whiteSpace=wrap;html=1;" vertex="1" parent="1">
          <mxGeometry x="370" y="120" width="120" height="60" as="geometry"/>
        </mxCell>
        <mxCell id="FvC4vKHcdPBLq3AzQwxq-13" style="edgeStyle=orthogonalEdgeStyle;rounded=0;orthogonalLoop=1;jettySize=auto;html=1;exitX=0.5;exitY=1;exitDx=0;exitDy=0;entryX=0.5;entryY=0;entryDx=0;entryDy=0;" edge="1" parent="1" source="FvC4vKHcdPBLq3AzQwxq-6" target="FvC4vKHcdPBLq3AzQwxq-7">
          <mxGeometry relative="1" as="geometry"/>
        </mxCell>
        <mxCell id="FvC4vKHcdPBLq3AzQwxq-6" value="你倾听" style="rounded=1;whiteSpace=wrap;html=1;" vertex="1" parent="1">
          <mxGeometry x="370" y="210" width="120" height="60" as="geometry"/>
        </mxCell>
        <mxCell id="FvC4vKHcdPBLq3AzQwxq-16" style="edgeStyle=orthogonalEdgeStyle;rounded=0;orthogonalLoop=1;jettySize=auto;html=1;exitX=0.5;exitY=1;exitDx=0;exitDy=0;entryX=0.5;entryY=0;entryDx=0;entryDy=0;" edge="1" parent="1" source="FvC4vKHcdPBLq3AzQwxq-7" target="FvC4vKHcdPBLq3AzQwxq-3">
          <mxGeometry relative="1" as="geometry"/>
        </mxCell>
        <mxCell id="FvC4vKHcdPBLq3AzQwxq-7" value="交换想法" style="rounded=1;whiteSpace=wrap;html=1;" vertex="1" parent="1">
          <mxGeometry x="260" y="310" width="120" height="60" as="geometry"/>
        </mxCell>
        <mxCell id="FvC4vKHcdPBLq3AzQwxq-9" style="edgeStyle=orthogonalEdgeStyle;rounded=0;orthogonalLoop=1;jettySize=auto;html=1;exitX=0.5;exitY=1;exitDx=0;exitDy=0;entryX=0.5;entryY=0;entryDx=0;entryDy=0;" edge="1" parent="1" source="FvC4vKHcdPBLq3AzQwxq-8" target="FvC4vKHcdPBLq3AzQwxq-5">
          <mxGeometry relative="1" as="geometry"/>
        </mxCell>
        <mxCell id="FvC4vKHcdPBLq3AzQwxq-10" style="edgeStyle=orthogonalEdgeStyle;rounded=0;orthogonalLoop=1;jettySize=auto;html=1;exitX=0.5;exitY=1;exitDx=0;exitDy=0;entryX=0.5;entryY=0;entryDx=0;entryDy=0;" edge="1" parent="1" source="FvC4vKHcdPBLq3AzQwxq-8" target="FvC4vKHcdPBLq3AzQwxq-1">
          <mxGeometry relative="1" as="geometry"/>
        </mxCell>
        <mxCell id="FvC4vKHcdPBLq3AzQwxq-8" value="沟通" style="rounded=1;whiteSpace=wrap;html=1;" vertex="1" parent="1">
          <mxGeometry x="270" y="20" width="120" height="60" as="geometry"/>
        </mxCell>
      </root>
    </mxGraphModel>
  </diagram>
</mxfile>
